<svg width='600px' xmlns="http://www.w3.org/2000/svg" xmlns:xlink="http://www.w3.org/1999/xlink" version="1.1" x="0px" y="0px" viewBox="0 0 266 332.5" style="fill:white" xml:space="preserve"><g><path d="M138.10677,104.58601c0.9715,1.71484,2.27362,3.57031,4.35858,3.81836c0.57062,0.06738,0.76886-0.65527,0.45795-1.02441   c-1.63452-1.93945-4.06464-4.18262-4.24603-6.85645C138.58046,99.0948,135.34126,99.7032,138.10677,104.58601z"/><path d="M134.69728,134.04305c0.59186,2.60059,1.88373,2.83105,2.08771,2.00879c0.88477-3.56445-1.64124-8.26465-5.61957-9.44238   c-0.7774-0.23047-1.2041,0.91992-0.62537,1.37598C133.41451,130.25301,133.90474,130.56355,134.69728,134.04305z"/><path d="M145.48518,139.00887c0.63867-1.25488-3.65344-0.46875-5.58112-0.88965c-1.63788-0.3584-3.23407-1.10352-4.92401-0.74609   c-0.63232,0.13379-0.65869,1.16797-0.0769,1.38477C137.47975,139.71785,143.75276,142.42097,145.48518,139.00887z"/><path d="M136.39125,151.45418c5.21173-2.46582,0.23828-11.28516-3.81934-12.34766   c-0.48083-0.12598-0.68164,0.57227-0.34351,0.83887c1.60846,1.2666,2.83862,2.94336,3.64124,4.81348   c0.93976,2.18945,0.4137,4.01465-0.12915,6.2041C135.65364,151.31355,136.09206,151.59578,136.39125,151.45418z"/><path d="M118.09792,137.07234c-4.52344,4.6748,5.44708,11.57227,4.33374,9.35254c-1.58167-3.14746-4.9892-4.91992-3.52612-8.8916   C119.10072,137.00301,118.4557,136.70222,118.09792,137.07234z"/><path d="M156.28871,83.64656c-0.12341,0.2207,0.14362,0.54883,0.37445,0.37402c3.09937-2.35156,3.56226-6.92871,8.00378-7.52832   c0.10822-0.01465,0.10883-0.18457-0.0022-0.19336C160.15211,75.93465,158.17323,80.27644,156.28871,83.64656z"/><path d="M183.81038,84.16316c-5.47552-8.44336-17.93066-5.22461-24.74652-1.17969   c-0.07611,0.04492-0.00134,0.17578,0.07709,0.13477c10.38086-5.41602,15.42584-3.67871,21.7074,1.12598   c1.37048,1.04883,4.05615,3.32617,1.56842,4.39258c-4.05573,1.7373-8.10626,1.95117-8.78174,6.9668   c-0.03369,0.25,0.36218,0.35254,0.47144,0.13477C176.92757,90.11336,189.0005,92.16707,183.81038,84.16316z"/><path d="M173.71169,103.43855c3.12592-1.80957,6.45416-0.46191,9.40466,1.16699c0.33942,0.1875,0.84912,0.03418,0.93463-0.37891   c0.65631-3.17285-3.5863-10.67188-8.32904-9.45508c-0.0976,0.02539-0.11664,0.19336,0.0022,0.19336   c4.12317,0.01074,5.58319,4.88867,6.73541,8.23633c-3.17505-0.81934-5.87122-2.70117-8.8302-0.13086   c-0.23608-0.36328-0.84613-0.41992-1.03778,0.11719c-0.60974,1.70898-0.50848,3.10254-0.24707,4.90625   c0.49152,3.3916-2.46216,9.61133-3.45844,4.03906c-0.73187-4.09277-2.7757-7.41992-5.46423-10.56543   c-5.17621-6.05566-12.67883-6.49512-18.52692-1.33984c-0.22467,0.19824,0.05377,0.5293,0.30249,0.40332   c6.84418-3.46484,12.69043-2.89648,17.82855,3.04102c2.17358,2.51172,3.62457,5.3916,4.26086,8.63086   c0.20453,1.04199,0.27045,2.81152,0.97754,3.68848c0.95117,1.17969,2.1936,1,3.23615-0.0918   c3.99939-4.1875,1.14441-7.42871,2.20801-12.35645C173.71657,103.50594,173.70949,103.47371,173.71169,103.43855z"/><path d="M172.51802,212.8243c-0.46967-2.34473-4.20172-5.35156-3.56018-7.65332c0.63525-2.2793,1.28308-3.72461,0.06842-5.91406   c-1.70099-3.06641-5.98969-0.54004-4.4231-6.65137c1.09772-4.2832-2.79004-8.74805-6.4588-10.47852   c-2.78851-1.31641-1.22382-3.03418-1.57422-5.85156c-0.78955-6.34668-8.18134-4.26367-9.38849-9.94238   c-1.22369-5.75586-1.62994-8.98047-6.58173-12.34961c1.77686-0.22656,3.50165-0.65332,5.12311-1.37012   c3.75513-1.65918,2.79987-8.91406,0.90387-11.625c-0.07281-0.10352-0.22241,0.0166-0.15405,0.12109   c4.06366,6.18359-1.23926,10.93262-7.20575,10.98047c-7.09442,0.05762-18.22015-2.41309-24.77838-5.80957   c-0.08319-0.11328-0.2168-0.17871-0.36523-0.18652c-7.11481-3.9082-12.93127-13.55078-5.29395-13.12695   c0.04816,0.04785,0.12311-0.02832,0.08398-0.08008c-0.06897-0.0918-0.14081-0.15723-0.21118-0.23633   c0.92371,0.55664,1.88928,1.0293,2.8443,1.40234c3.0611,1.87891,6.54279,3.36914,9.94519,2.43945   c0.12775-0.03516,0.17249-0.12695,0.17383-0.22168c1.19543,0.41992,2.4707,0.69238,3.63666,1.08008   c1.7356,0.57813,3.60376,1.45215,5.44336,1.02441c0.20197-0.04785,0.29395-0.35645,0.12213-0.49219   c-1.4754-1.16016-3.49121-1.45313-5.2663-1.95996c-0.88019-0.25195-1.81-0.57617-2.74963-0.80176   c-0.01062-0.60645-2.68695-3.48145-3.51563-5.72168c-0.849-2.2959-1.24609-6.02441-1.6908-7.11621   c2.32251,0.67383,4.71417,1.15527,6.91095,1.70996c6.62921,1.67383,13.14685,4.23438,20.03729,3.68652   c0.97168,1.31934,2.1861,2.42578,3.11353,3.77148c2.34454,3.40137-1.39746,7.75781-3.79065,9.90527   c-0.07397,0.06641,0.01276,0.18555,0.09436,0.12402c2.90826-2.18945,5.37097-4.01855,5.65387-7.9209   c0.19-2.62207-1.80219-4.7998-3.97357-5.99805c0.00189,0,0.57495-0.07324,0.57715-0.07324   c0.11169,0.07617,0.24347,0.12109,0.39813,0.07617c3.31512-0.96973,4.43536-6.1377,3.54572-9.06836   c-0.4458-1.46777-1.91516-4.43848-3.74658-5.21387c1.19421,0.27246,2.4071,0.40332,3.68323,0.21484   c3.17358-0.4707,4.77716-5.30176,3.07062-7.84668c-2.9068-4.33398-8.84528-4.53125-13.14124-6.78223   c-0.41412-0.21777-0.85693,0.38379-0.54663,0.72363c3.07227,3.36133,7.88293,3.11816,11.09637,6.0293   c2.58405,2.22754-0.17749,6.06348-3.15576,5.69824c-2.0495-0.25098-4.06372-1.12402-6.05359-1.65332   c-1.12299-0.29785-2.31879-0.28223-3.45111-0.05078c-3.28558,0.6709-5.67139-0.24512-8.59888-1.12305   c-7.04437-4.05371-5.6463-7.95508-5.31714-13.21875c1.6673,0.92578,3.99683,1.30859,5.32385,1.58887   c0.65912,0.13867,0.98322-0.6748,0.41553-0.99609c1.70667-2.50879,4.38824-4.87793,6.12927-7.53613   c0.31189,0.43066,0.59131,0.87695,0.85022,1.33496c-0.08026,0.12109-0.16077,0.24219-0.24115,0.36328   c-0.0379,0.05762,0.02222,0.11719,0.08032,0.08398c0.10516-0.05957,0.19568-0.13477,0.29541-0.2002   c1.14398,2.11035,1.79932,4.46094,2.30029,6.81543c-1.38953,0.63867-1.64795,1.20215-5.07758,1.17188   c-2.80133-0.02637-8.0517-1.73047-7.20673-1.12305c3.04517,2.21582,9.68188,3.73242,12.64844,1.55176   c0.15869,0.31055,0.62463,0.34277,0.71448-0.0625c0.02216-0.10059,0.25507-1.37598,0.26904-1.47656   c0.00964-0.06934-0.00665-0.14258-0.03674-0.20703c0.16785-2.7627-0.74786-5.41602-2.48816-7.56738   c1.28729-1.25293,2.25488-2.82813,3.99414-3.69336c2.21063-1.09863,4.39551,0.80078,6.50024-0.20703   c0.6698-0.32324-0.79102-0.87012-1.52631-1.06152c4.10101-8.18359,11.37189-11.69336,20.17212-8.89063   c0.27209,0.08594,0.45886-0.32813,0.20166-0.46191c-8.63947-4.5-16.8194,1.3584-20.41986,9.3418   c-4.26422-1.08691-6.86859,0.82227-9.37903,4.4375c-0.29742-0.32617-0.80853-0.83887-1.10187-1.0625   c0.422-0.7666,0.74756-1.5625,0.94177-2.39355c2.14557-3.93848,2.96857-8.16602-0.18964-11.17969   c-0.10736-0.3877-0.22583-0.77148-0.3606-1.14844c1.34216-2.90723,1.81885-7.73633-1.13922-9.00977   c0.06769-0.25391,0.12183-0.50977,0.15997-0.76465c2.94647-4.4375,4.61047-10.89258,1.57806-15.55469   c3.23499-4.87402,3.51373-13.75879-0.91107-15.28516c0.05359-0.55762,0.05927-1.14063,0.00342-1.75781   c5.00311-7.00195,1.0827-14.71094-0.98157-13.4834c0.01257-0.5293-0.01361-1.08105-0.09302-1.66211   c0.08276,0.32129,0.55774,0.35742,0.71124,0.05859c0.77319-1.50781,1.28204-3.03613,1.42194-4.74023   c0.09039-1.10059-0.30688-4.30469-2.15784-3.59277c-0.02545,0.00977-0.02997,0.03711-0.01788,0.05957   c0.33447,0.59766,0.76385,0.97363,0.8924,1.69043c0.13934,0.77734-0.10175,1.67969-0.24902,2.44238   c-0.25598,1.32617-0.6286,2.56348-0.6272,3.92578c-0.03699-0.24707-0.07159-0.49219-0.12622-0.74902   c-0.05737-0.26953-0.43951-0.2041-0.46191,0.0498c-0.70551,8.00683-6.86731,10.0957-10.9942,17.16992   c-2.25842-7.75586,0.31207-13.21094,6.14087-18.17969c2.76654-2.3584,5.51227-4.73926,5.41937-8.60352   c-0.0083-0.34668-0.46057-0.41211-0.62524-0.1416c-3.12341,5.14355-8.22699,8.09375-11.56769,12.95117   c-2.79944,4.07129-2.77045,10.23926-0.50433,14.4834c0.15027,0.28125,0.43994,0.34473,0.69482,0.27441   c-2.54022,4.79004-1.74438,7.90039,0.23724,13.5791c0.0144,0.04102,0.04852,0.05957,0.073,0.08984   c-2.41779,4.36133-2.30151,9.85352-0.34235,14.44434c-3.73486,5.26856-3.89624,11.04981-0.55121,16.792   c0.03149,0.05371,0.11151,0.03125,0.13409-0.0166c0.20612-0.43359,0.65961-1.01953,0.54102-1.56836   c-0.88556-4.09961-2.30811-7.0498-0.66547-11.27832c1.54871-3.98633,5.28729-7.08204,8.30103-9.91993   c1.60327-1.51074,3.76831-3.44727,5.17859-5.61621c1.22198,3.4541,0.3382,7.58789-0.80322,11.29395   c-0.13293-0.29883-0.28888-0.5957-0.49487-0.88379c-0.2132-0.29883-0.70129-0.13867-0.67676,0.23438   c0.48932,7.45996-6.02118,11.44336-10.34485,16.53028c-6.22852,7.32617-2.29205,12.9043-2.15765,12.26953   c0.69623-3.31152-1.39551-5.06348,3.23547-11.31348c2.72778-3.67969,7.45288-6.46582,9.91473-11.38672   c1.37341,1.44434-0.16699,4.47656,0.16699,7.49512c-4.5636,10.08398-16.75989,13.13086-13.0152,19.08594   c-0.23853,0.52832-0.01483,1.86133,1.36017,2.83008c-2.98083,3.47168-2.34753,8.4668,0.21759,11.9707   c-2.55219-0.71191-5.15778-1.40723-7.74579-1.96484c-2.60083-3.69238-5.24976-7.18457-1.12695-13.83398   c0.32257-0.52051-0.34186-1.14063-0.81561-0.71582c-3.11597,2.7959-4.18091,9.01855-2.15759,13.07617   c-0.90393-1.21484-3.75769-1.55371-4.68506-3.71973c-1.35657-3.16895,2.52936-7.91992,5.90729-9.8252   c1.94275-1.0957,3.11816-0.78223,4.96051,0.04199c0.51392,0.23047,0.86505-0.41016,0.69092-0.82227   c-1.10938-2.62402-7.10071-2.60645-11.93079,3.91309c-3.91711,5.28516-1.56714,10.86426,3.26666,11.30566   c-0.29071,0.41406-0.16779,1.10742,0.49066,1.27051c1.77374,0.44043,3.50934,1.00391,5.2403,1.58301   c-2.40625,6.14844,6.49719,14.42188,11.76379,15.28906c0.32526,0.05371,0.65698-0.36426,0.40253-0.64453   c-3.55341-3.91113-10.87433-6.71875-10.2262-13.99805c1.80713,0.59961,3.62195,1.17383,5.48309,1.5957   c2.52161,0.57227,5.30469,1.75977,7.96436,2.375c2.79401,1.43457,4.92316,3.33789,6.09967,6.30957   c0.94623,2.38965,0.39941,4.49902,0.30792,6.77734c-8.56458-1.4668-23.04529-5.86133-28.20831-8.36133   c-0.20294-0.09766-0.39343-0.02539-0.52252,0.11328c-2.35175-1.67676-2.92932-3.34082-3.8902-5.63281   c-0.78821-1.87988,0.96936-5.57227,3.49011-5.06934c0.01819,0.00391,0.0271-0.0166,0.01947-0.03027   c-1.68738-3.10352-5.45526,2.38867-5.06104,4.44629c0.33801,1.76367,1.22382,3.8877,2.51105,5.6709   c-1.92981,3.07227-3.26825,7.59277-2.10437,11.12988c0.62183,1.88965,1.97882,3.4209,3.60706,4.63184   c-2.04407-0.50684-4.05231,2.67578-3.52087,5.01465c1.11011,4.88574,4.85358,8.42969,9.22858,10.9248   c-0.67725,2.04297-1.81952,3.90527-2.28436,6.06055c-0.43835,2.0332,1.06592,4.70313-1.435,5.18555   c-3.54181,0.68262-4.08789,5.35352-4.08826,8.18848c-0.00031,2.4209,1.22076,3.63379-1.46405,4.36035   c-1.84949,0.5-3.21045,1.83105-4.28955,3.33105c-2.33807,3.25-2.26459,8.17188-2.4845,12.19043   c-4.0835-2.16895-6.86285,4.20996-7.56659,7.82324c-0.21606,1.10938-0.08374,2.5791,0.125,3.6748   c0.1507,0.79102-1.93481,0.53125-2.92023,0.83691c-2.71893,0.84375-5.34576,5.74219-3.28589,11.25293   c0.66315,1.77344-0.82043,1.50488-1.55341,3.3623c-0.95758,2.42676-1.5766,5.41309-0.28174,7.8584   c1.45203,2.74219,2.83832,5.2666,1.159,8.27734c-0.4342,0.77832-1.03174,1.85547-0.84827,2.80957   c0.58264,3.03125,2.44592,4.64063,4.87317,6.41211c3.15649,2.30371,2.67499,5.95117,5.21747,8.22168   c2.46515,2.20215,6.82214,1.8584,8.89313,4.05859c4.40863,4.68456,7.16296,6.91698,12.9491,7.23924   c1.50684,0.08301,3.70007-1.0625,4.75397,0.27734c3.23035,4.10645,15.453,3.03125,15.54242-3.56737   c0.00903-0.66895-0.84497-0.79199-1.10297-0.21387c-2.04022,4.56639-11.48407,6.84373-14.06421,1.67674   c-0.14703-0.29492-0.5401-0.35938-0.82318-0.28711c-10.66779,2.72363-14.28241-5.21581-16.8479-6.72459   c-1.88818-1.10938-4.46765-1.3291-6.48059-2.13281c-3.44434-1.375-2.44476-4.62988-4.1911-6.96289   c-1.37396-1.83496-3.19025-2.99414-4.98767-4.38965c-5.37476-4.17188-0.54523-5.07324-0.17358-8.33398   c0.57281-5.02734-7.74756-12.38672-0.22076-15.57031c0.38782-0.16406,0.66986-0.63867,0.38251-1.03613   c-2.93866-4.05566-1.85962-12.63379,4.90332-10.80078c0.59766,0.16211,0.95453-0.46387,0.84601-0.96289   c-0.63745-2.07617-0.73383-4.1748-0.28925-6.29785c0.23334-1.4043,2.94281-7.98242,6.12549-4.77051   c0.34247,0.3457,1.04724,0.16895,1.12817-0.33496c1.06158-6.6123-0.4021-14.91504,8.29553-16.2168   c0.34924-0.05176,0.51398-0.45117,0.4519-0.75977c-0.82996-4.11426-1.47241-11.29199,4.5791-11.34961   c1.65253-0.01855-0.58826-3.56836,1.11865-8.68652c0.37207-1.11621,0.875-2.12695,1.26544-3.19434   c5.85675,3.08887,17.71613,6.37012,25.16858,5.85156c-0.50934,1.39844,4.32727,2.71777,5.92023,7.72461   c1.14648,3.60254-0.71753,7.62012,5.0213,9.60449c4.62927,1.59863,6.44965,5.40234,4.69196,9.99902   c-0.11566,0.30273,0.08923,0.62988,0.37494,0.73145c6.3186,2.24902,8.88403,6.0752,7.69354,12.90039   c-0.36621,2.09863,2.27637,3.12793,3.64532,3.79102c2.88843,1.40039-0.06635,7.42285,1.82666,9.9834   c1.42377,1.92578,2.65985,2.4834,2.79639,5.22559c0.15277,3.06934-1.65656,7.17578-4.82599,8.05176   c-0.42505,0.11816-0.55963,0.56055-0.30463,0.90918c4.71484,6.44434-0.75055,15.24902-7.22656,17.61719   c-0.04047-0.49609-0.12-0.96875-0.24567-1.4043c-1.00006-3.47656-1.96271,17.041-11.05792,10.37207   c-2.01813-1.48145,0.08124,8.19139-12.40607,6.7412c-0.34827-0.04102-0.5976,0.44629-0.23004,0.61719   c3.15747,1.46484,6.34485,1.47656,9.26733-0.4834c1.28918-0.86522,2.05133-2.25487,2.71741-3.60057   c1.21729-2.45996,0.52734-0.99805,2.81427-0.52051c5.19427,1.08301,9.01862-5.60156,9.16589-10.66504   c2.56934,0.86523,10.93512-4.55469,10.33417-14.14258c-0.03656-0.58398-1.43622-4.66113-1.50616-4.62598   C171.17305,221.22762,173.27974,216.62508,172.51802,212.8243z M129.32344,27.03035   c2.88098-2.87305,5.50946-5.32617,6.12518-8.83008c0.74243,3.22852,2.76129,3.48828-0.84717,12.94238   c-0.22601,0.59277,0.5462,0.93457,0.96448,0.4375c-1.7334,5.8291-8.22046,9.07227-11.10431,13.21094   C124.44398,40.30281,118.3799,37.94441,129.32344,27.03035z M136.63191,42.41609c0.12408,1.32129-0.1048,2.57617-0.58209,3.77539   c-0.40387,0.08789-0.70404,0.50195-0.4541,0.98047c-2.55615,4.91602-8.87103,8.74121-11.92609,12.83301   c-0.22791-11.00098-0.99945-12.13379,7.62146-19.76172c2.38159-2.10742,4.30707-4.14941,5.0127-6.7793   c1.61768,2.90527,1.78461,6.19141,1.15552,9.42285c-0.07367-0.21484-0.14563-0.42969-0.24976-0.64551   C137.07417,41.96101,136.60384,42.11628,136.63191,42.41609z M122.92842,92.06844c0.02692-0.06152,0.04395-0.12891,0.03448-0.20313   c-0.89075-7.05176,9.82886-7.81445,12.90125-16.53418c4.0199,6.37402-5.01605,12.34277-6.30316,18.35547   c-0.04102,0.19141,0.05176,0.32422,0.18488,0.38574c-0.22559,0.49023-0.39423,1.01074-0.49908,1.56348   c-1.75867-0.68652-3.28741-0.89941-4.75238-1.91797C123.85768,93.27547,123.49025,92.58504,122.92842,92.06844z    M111.6736,104.17195c0.20093-0.12305,0.34894-0.36328,0.27838-0.58496c0.12231,0.23633,0.2558,0.46289,0.39972,0.68262   C112.12502,104.23445,111.89931,104.2032,111.6736,104.17195z M135.63112,112.16316   c7.69751-0.62305,4.95624-0.4541,10.15814,0.94629c-1.24371-0.12402-2.11322,0.80664-1.4881,1.31445   c1.84912,1.50098,3.23993,3.57422,3.40112,6.00293c0.14917,2.24609-1.49921,4.00195-1.6839,6.05176   c-1.98712-0.44922-3.97382-0.80273-5.95764-1.14063C141.50166,122.06648,140.10951,115.14851,135.63112,112.16316z    M106.34389,128.62703c-2.52649-2.89844-1.35394-8.41602,0.31879-11.67773c1.36322,1.57422,3.07947,2.70313,5.01953,2.80273   c1.50153,0.95215,3.18066,1.65332,4.92719,2.21484c-0.22742,0.11719-0.38599,0.33887-0.33722,0.64453   c0.62848,3.94531,1.01105,9.98535,4.86517,12.25293c-0.53864-0.01855-1.07306,0.02832-1.59558,0.18359   c-0.33612,0.10156,0.74573,0.63477,1.0611,0.78418c-3.42963-0.65527-6.36737-2.14063-9.414-3.63086   C109.72853,130.87801,107.6844,130.16512,106.34389,128.62703z"/><path d="M106.13155,242.25496c11.69379,0.84473,11.08704,6.77441,12.91211,5.36719   c2.40759-1.85547,5.18695-3.27637,8.13153-4.04688c2.95245-0.77344,5.87402,1.7168,8.50708,2.68848   c0.82349,0.30371,1.70068-0.28418,1.62781-1.19043c-0.54102-6.73242,7.99396-5.70508,11.62842-8.9668   c0.32001-0.28809,0.19385-0.80566-0.1145-1.05859c1.88501-4.13965,4.33374-6.16016,7.83649-9.09082   c3.08252-2.5791-2.21851-10.75195-0.31384-18.21582c0.16449-0.64453,1.30237-2.12695,1.09509-3.06152   c-1.05963-4.7793-8.62622-3.0127-12.55939-12.11426c-1.04681-2.42285-0.17358-5.36523-0.17163-7.90039   c0.00366-4.9541-9.04004-5.58496-11.26373-14.71484c-0.6037-2.47852-0.15076-4.17383-1.43225-6.39844   c-1.39923-2.42969-7.02112-3.27051-3.46277-7.78516c0.41516-0.52637-0.37994-1.12109-0.85486-0.72949   c-1.85828,1.5332-3.51617,3.70898-1.3764,5.91406c2.30731,2.37793,4.81012,3.24023,5.07153,7.4082   c0.54425,8.67676,6.0882,11.0166,10.3811,14.22852c4.22296,3.1582-5.28162,11.00293,11.34418,20.05078   c3.10669,1.69043,1.58423,3.63867,0.8858,6.18848c-1.32349,4.83105,1.8728,11.11914,1.49896,15.40625   c-0.18243,2.0918-6.13525,2.2998-7.17755,10.67773c-5.25128,0.80078-12.33923,2.91699-13.23926,8.62207   c-6.05621-2.5127-7.40692-3.41895-15.31689,1.48828c-1.87219,1.16211-3.64923-1.56543-5.45074-2.65625   c-5.54443-3.3623-12.36121,1.12793-11.58484-6.03613c0.46631-4.30371-2.27307-6.39648-5.35754-8.61035   c2.83533-3.77344,0.7879-8.375-0.9303-12.49805c3.16742-1.02832,3.41864-3.33691,3.13708-7.0957   c-0.11206-1.49512-1.25287-3.67871,0.50598-3.41211c4.53876,0.68555,5.28149-7.12109,5.30725-10.78613   c5.37085,0.56152,7.32208-8.28613,7.69232-13.75781c-0.07117,1.05176,3.6712-1.74512,3.97302-2.05762   c1.87897-1.94141,2.7251-4.96289,3.3316-7.5127c0.71344-2.99805,0.56885-1.22852,2.4566-3.04004   c3.13312-3.00586,2.12592-8.2832,1.64984-12.12012c-0.01642-0.13184-0.2196-0.125-0.23224,0.00586   c-0.31805,3.29199,0.51062,11.37793-4.31677,11.49707c-0.44299,0.01172-0.67114,0.39844-0.69531,0.79004   c-0.22906,3.70508-2.07843,11.06934-6.90881,10.91992c-0.44586-0.01367-0.92902,0.2627-0.95416,0.75977   c-0.16797,3.32129-1.53796,14.17188-6.59949,12.56348c-0.69489-0.22168-1.22522,0.32617-1.18756,0.99707   c0.1441,2.57031-0.11786,11.44434-4.70215,9.8418c-3.1637-1.10352,2.11993,9.7666-3.83154,10.91504   c-2.92664,0.56445,5.27667,8.54297,0.50366,13.48145c-1.91577,1.9834,5.75446,2.44824,5.35114,10.25488   C100.71492,241.54597,102.16664,241.96883,106.13155,242.25496z"/></g><text x="0" y="281" fill="#000000" font-size="0px"  font-family="'Helvetica Neue', Helvetica, Arial-Unicode, Arial, Sans-serif"></text><text x="0" y="286" fill="#000000" font-size="5px" font-weight="bold" font-family="'Helvetica Neue', Helvetica, Arial-Unicode, Arial, Sans-serif"></text></svg>